<svg xmlns="http://www.w3.org/2000/svg" viewBox="0 0 64 64" width="64" height="64">
  <g fill="#c89020">
    <rect x="6" y="8" width="8" height="6" rx="2" transform="rotate(-10 10 11)"/>
    <rect x="28" y="4" width="10" height="7" rx="2" transform="rotate(5 33 7)"/>
    <rect x="50" y="10" width="7" height="5" rx="2" transform="rotate(-8 53 12)"/>
    <rect x="14" y="28" width="9" height="6" rx="2" transform="rotate(12 18 31)"/>
    <rect x="38" y="24" width="8" height="7" rx="2" transform="rotate(-6 42 27)"/>
    <rect x="4" y="48" width="10" height="6" rx="2" transform="rotate(8 9 51)"/>
    <rect x="24" y="44" width="8" height="6" rx="2" transform="rotate(-4 28 47)"/>
    <rect x="46" y="46" width="9" height="7" rx="2" transform="rotate(6 50 49)"/>
    <rect x="18" y="58" width="7" height="5" rx="2"/>
    <rect x="54" y="32" width="6" height="5" rx="2" transform="rotate(-12 57 34)"/>
  </g>
  <g fill="#daa830" opacity="0.6">
    <circle cx="12" cy="18" r="2"/>
    <circle cx="42" cy="38" r="2.5"/>
    <circle cx="56" cy="52" r="2"/>
    <circle cx="32" cy="56" r="1.5"/>
  </g>
</svg>
