<svg xmlns="http://www.w3.org/2000/svg" viewBox="0 0 512 64" width="512" height="64">
  <g transform="translate(32,32) rotate(0)">
    <rect x="-18.0" y="-13.0" width="7" height="26" rx="2" fill="#808080" stroke="#606060" stroke-width="1"/>
    <rect x="11.0" y="-13.0" width="7" height="26" rx="2" fill="#808080" stroke="#606060" stroke-width="1"/>
    <rect x="-11.0" y="-11.0" width="22" height="22" rx="2" fill="#c8c8c8" stroke="#808080" stroke-width="1"/>
    <rect x="-1.5" y="-24.0" width="3" height="20" rx="1" fill="#808080" stroke="#606060" stroke-width="1"/>
    <rect x="-8.0" y="-5.0" width="16" height="14" rx="2" fill="#b8b8b8" stroke="#808080" stroke-width="1"/>
  </g>
  <g transform="translate(96,32) rotate(45)">
    <rect x="-18.0" y="-13.0" width="7" height="26" rx="2" fill="#808080" stroke="#606060" stroke-width="1"/>
    <rect x="11.0" y="-13.0" width="7" height="26" rx="2" fill="#808080" stroke="#606060" stroke-width="1"/>
    <rect x="-11.0" y="-11.0" width="22" height="22" rx="2" fill="#c8c8c8" stroke="#808080" stroke-width="1"/>
    <rect x="-1.5" y="-24.0" width="3" height="20" rx="1" fill="#808080" stroke="#606060" stroke-width="1"/>
    <rect x="-8.0" y="-5.0" width="16" height="14" rx="2" fill="#b8b8b8" stroke="#808080" stroke-width="1"/>
  </g>
  <g transform="translate(160,32) rotate(90)">
    <rect x="-18.0" y="-13.0" width="7" height="26" rx="2" fill="#808080" stroke="#606060" stroke-width="1"/>
    <rect x="11.0" y="-13.0" width="7" height="26" rx="2" fill="#808080" stroke="#606060" stroke-width="1"/>
    <rect x="-11.0" y="-11.0" width="22" height="22" rx="2" fill="#c8c8c8" stroke="#808080" stroke-width="1"/>
    <rect x="-1.5" y="-24.0" width="3" height="20" rx="1" fill="#808080" stroke="#606060" stroke-width="1"/>
    <rect x="-8.0" y="-5.0" width="16" height="14" rx="2" fill="#b8b8b8" stroke="#808080" stroke-width="1"/>
  </g>
  <g transform="translate(224,32) rotate(135)">
    <rect x="-18.0" y="-13.0" width="7" height="26" rx="2" fill="#808080" stroke="#606060" stroke-width="1"/>
    <rect x="11.0" y="-13.0" width="7" height="26" rx="2" fill="#808080" stroke="#606060" stroke-width="1"/>
    <rect x="-11.0" y="-11.0" width="22" height="22" rx="2" fill="#c8c8c8" stroke="#808080" stroke-width="1"/>
    <rect x="-1.5" y="-24.0" width="3" height="20" rx="1" fill="#808080" stroke="#606060" stroke-width="1"/>
    <rect x="-8.0" y="-5.0" width="16" height="14" rx="2" fill="#b8b8b8" stroke="#808080" stroke-width="1"/>
  </g>
  <g transform="translate(288,32) rotate(180)">
    <rect x="-18.0" y="-13.0" width="7" height="26" rx="2" fill="#808080" stroke="#606060" stroke-width="1"/>
    <rect x="11.0" y="-13.0" width="7" height="26" rx="2" fill="#808080" stroke="#606060" stroke-width="1"/>
    <rect x="-11.0" y="-11.0" width="22" height="22" rx="2" fill="#c8c8c8" stroke="#808080" stroke-width="1"/>
    <rect x="-1.5" y="-24.0" width="3" height="20" rx="1" fill="#808080" stroke="#606060" stroke-width="1"/>
    <rect x="-8.0" y="-5.0" width="16" height="14" rx="2" fill="#b8b8b8" stroke="#808080" stroke-width="1"/>
  </g>
  <g transform="translate(352,32) rotate(225)">
    <rect x="-18.0" y="-13.0" width="7" height="26" rx="2" fill="#808080" stroke="#606060" stroke-width="1"/>
    <rect x="11.0" y="-13.0" width="7" height="26" rx="2" fill="#808080" stroke="#606060" stroke-width="1"/>
    <rect x="-11.0" y="-11.0" width="22" height="22" rx="2" fill="#c8c8c8" stroke="#808080" stroke-width="1"/>
    <rect x="-1.5" y="-24.0" width="3" height="20" rx="1" fill="#808080" stroke="#606060" stroke-width="1"/>
    <rect x="-8.0" y="-5.0" width="16" height="14" rx="2" fill="#b8b8b8" stroke="#808080" stroke-width="1"/>
  </g>
  <g transform="translate(416,32) rotate(270)">
    <rect x="-18.0" y="-13.0" width="7" height="26" rx="2" fill="#808080" stroke="#606060" stroke-width="1"/>
    <rect x="11.0" y="-13.0" width="7" height="26" rx="2" fill="#808080" stroke="#606060" stroke-width="1"/>
    <rect x="-11.0" y="-11.0" width="22" height="22" rx="2" fill="#c8c8c8" stroke="#808080" stroke-width="1"/>
    <rect x="-1.5" y="-24.0" width="3" height="20" rx="1" fill="#808080" stroke="#606060" stroke-width="1"/>
    <rect x="-8.0" y="-5.0" width="16" height="14" rx="2" fill="#b8b8b8" stroke="#808080" stroke-width="1"/>
  </g>
  <g transform="translate(480,32) rotate(315)">
    <rect x="-18.0" y="-13.0" width="7" height="26" rx="2" fill="#808080" stroke="#606060" stroke-width="1"/>
    <rect x="11.0" y="-13.0" width="7" height="26" rx="2" fill="#808080" stroke="#606060" stroke-width="1"/>
    <rect x="-11.0" y="-11.0" width="22" height="22" rx="2" fill="#c8c8c8" stroke="#808080" stroke-width="1"/>
    <rect x="-1.5" y="-24.0" width="3" height="20" rx="1" fill="#808080" stroke="#606060" stroke-width="1"/>
    <rect x="-8.0" y="-5.0" width="16" height="14" rx="2" fill="#b8b8b8" stroke="#808080" stroke-width="1"/>
  </g>
</svg>
