<svg xmlns="http://www.w3.org/2000/svg" viewBox="0 0 512 64" width="512" height="64">
  <g transform="translate(32,32) rotate(0)">
    <ellipse cx="0" cy="2" rx="7" ry="14" fill="#808870" stroke="#606850" stroke-width="1"/>
    <line x1="-10" y1="-10" x2="10" y2="-10" stroke="#404040" stroke-width="1.5"/>
    <line x1="-10" y1="14" x2="10" y2="14" stroke="#404040" stroke-width="1.5"/>
    <circle cx="0" cy="-10" r="2" fill="#909090" stroke="#707070" stroke-width="1"/>
    <circle cx="0" cy="14" r="2" fill="#909090" stroke="#707070" stroke-width="1"/>
    <rect x="-5.0" y="-8.0" width="10" height="20" rx="2" fill="#909880" stroke="#707860" stroke-width="1"/>
  </g>
  <g transform="translate(96,32) rotate(45)">
    <ellipse cx="0" cy="2" rx="7" ry="14" fill="#808870" stroke="#606850" stroke-width="1"/>
    <line x1="-10" y1="-10" x2="10" y2="-10" stroke="#404040" stroke-width="1.5"/>
    <line x1="-10" y1="14" x2="10" y2="14" stroke="#404040" stroke-width="1.5"/>
    <circle cx="0" cy="-10" r="2" fill="#909090" stroke="#707070" stroke-width="1"/>
    <circle cx="0" cy="14" r="2" fill="#909090" stroke="#707070" stroke-width="1"/>
    <rect x="-5.0" y="-8.0" width="10" height="20" rx="2" fill="#909880" stroke="#707860" stroke-width="1"/>
  </g>
  <g transform="translate(160,32) rotate(90)">
    <ellipse cx="0" cy="2" rx="7" ry="14" fill="#808870" stroke="#606850" stroke-width="1"/>
    <line x1="-10" y1="-10" x2="10" y2="-10" stroke="#404040" stroke-width="1.5"/>
    <line x1="-10" y1="14" x2="10" y2="14" stroke="#404040" stroke-width="1.5"/>
    <circle cx="0" cy="-10" r="2" fill="#909090" stroke="#707070" stroke-width="1"/>
    <circle cx="0" cy="14" r="2" fill="#909090" stroke="#707070" stroke-width="1"/>
    <rect x="-5.0" y="-8.0" width="10" height="20" rx="2" fill="#909880" stroke="#707860" stroke-width="1"/>
  </g>
  <g transform="translate(224,32) rotate(135)">
    <ellipse cx="0" cy="2" rx="7" ry="14" fill="#808870" stroke="#606850" stroke-width="1"/>
    <line x1="-10" y1="-10" x2="10" y2="-10" stroke="#404040" stroke-width="1.5"/>
    <line x1="-10" y1="14" x2="10" y2="14" stroke="#404040" stroke-width="1.5"/>
    <circle cx="0" cy="-10" r="2" fill="#909090" stroke="#707070" stroke-width="1"/>
    <circle cx="0" cy="14" r="2" fill="#909090" stroke="#707070" stroke-width="1"/>
    <rect x="-5.0" y="-8.0" width="10" height="20" rx="2" fill="#909880" stroke="#707860" stroke-width="1"/>
  </g>
  <g transform="translate(288,32) rotate(180)">
    <ellipse cx="0" cy="2" rx="7" ry="14" fill="#808870" stroke="#606850" stroke-width="1"/>
    <line x1="-10" y1="-10" x2="10" y2="-10" stroke="#404040" stroke-width="1.5"/>
    <line x1="-10" y1="14" x2="10" y2="14" stroke="#404040" stroke-width="1.5"/>
    <circle cx="0" cy="-10" r="2" fill="#909090" stroke="#707070" stroke-width="1"/>
    <circle cx="0" cy="14" r="2" fill="#909090" stroke="#707070" stroke-width="1"/>
    <rect x="-5.0" y="-8.0" width="10" height="20" rx="2" fill="#909880" stroke="#707860" stroke-width="1"/>
  </g>
  <g transform="translate(352,32) rotate(225)">
    <ellipse cx="0" cy="2" rx="7" ry="14" fill="#808870" stroke="#606850" stroke-width="1"/>
    <line x1="-10" y1="-10" x2="10" y2="-10" stroke="#404040" stroke-width="1.5"/>
    <line x1="-10" y1="14" x2="10" y2="14" stroke="#404040" stroke-width="1.5"/>
    <circle cx="0" cy="-10" r="2" fill="#909090" stroke="#707070" stroke-width="1"/>
    <circle cx="0" cy="14" r="2" fill="#909090" stroke="#707070" stroke-width="1"/>
    <rect x="-5.0" y="-8.0" width="10" height="20" rx="2" fill="#909880" stroke="#707860" stroke-width="1"/>
  </g>
  <g transform="translate(416,32) rotate(270)">
    <ellipse cx="0" cy="2" rx="7" ry="14" fill="#808870" stroke="#606850" stroke-width="1"/>
    <line x1="-10" y1="-10" x2="10" y2="-10" stroke="#404040" stroke-width="1.5"/>
    <line x1="-10" y1="14" x2="10" y2="14" stroke="#404040" stroke-width="1.5"/>
    <circle cx="0" cy="-10" r="2" fill="#909090" stroke="#707070" stroke-width="1"/>
    <circle cx="0" cy="14" r="2" fill="#909090" stroke="#707070" stroke-width="1"/>
    <rect x="-5.0" y="-8.0" width="10" height="20" rx="2" fill="#909880" stroke="#707860" stroke-width="1"/>
  </g>
  <g transform="translate(480,32) rotate(315)">
    <ellipse cx="0" cy="2" rx="7" ry="14" fill="#808870" stroke="#606850" stroke-width="1"/>
    <line x1="-10" y1="-10" x2="10" y2="-10" stroke="#404040" stroke-width="1.5"/>
    <line x1="-10" y1="14" x2="10" y2="14" stroke="#404040" stroke-width="1.5"/>
    <circle cx="0" cy="-10" r="2" fill="#909090" stroke="#707070" stroke-width="1"/>
    <circle cx="0" cy="14" r="2" fill="#909090" stroke="#707070" stroke-width="1"/>
    <rect x="-5.0" y="-8.0" width="10" height="20" rx="2" fill="#909880" stroke="#707860" stroke-width="1"/>
  </g>
</svg>
