<svg xmlns="http://www.w3.org/2000/svg" viewBox="0 0 512 64" width="512" height="64">
  <g transform="translate(32,32) rotate(0)">
    <rect x="-19.0" y="-10.0" width="7" height="24" rx="2" fill="#808080" stroke="#606060" stroke-width="1"/>
    <rect x="12.0" y="-10.0" width="7" height="24" rx="2" fill="#808080" stroke="#606060" stroke-width="1"/>
    <rect x="-12.0" y="-8.0" width="24" height="20" rx="2" fill="#c8c8c8" stroke="#808080" stroke-width="1"/>
    <circle cx="0" cy="4" r="8" fill="#b0b0b0" stroke="#808080" stroke-width="1"/>
    <rect x="-1.5" y="-16.0" width="3" height="14" rx="1" fill="#909090" stroke="#707070" stroke-width="1"/>
    <circle cx="0" cy="4" r="2.8" fill="#a0a0a0" stroke="#707070" stroke-width="1"/>
    <circle cx="0" cy="4" r="12" fill="none" stroke="#44aaff" stroke-width="1"/>
    <circle cx="0" cy="4" r="14" fill="none" stroke="#2288dd" stroke-width="1"/>
  </g>
  <g transform="translate(96,32) rotate(45)">
    <rect x="-19.0" y="-10.0" width="7" height="24" rx="2" fill="#808080" stroke="#606060" stroke-width="1"/>
    <rect x="12.0" y="-10.0" width="7" height="24" rx="2" fill="#808080" stroke="#606060" stroke-width="1"/>
    <rect x="-12.0" y="-8.0" width="24" height="20" rx="2" fill="#c8c8c8" stroke="#808080" stroke-width="1"/>
    <circle cx="0" cy="4" r="8" fill="#b0b0b0" stroke="#808080" stroke-width="1"/>
    <rect x="-1.5" y="-16.0" width="3" height="14" rx="1" fill="#909090" stroke="#707070" stroke-width="1"/>
    <circle cx="0" cy="4" r="2.8" fill="#a0a0a0" stroke="#707070" stroke-width="1"/>
    <circle cx="0" cy="4" r="12" fill="none" stroke="#44aaff" stroke-width="1"/>
    <circle cx="0" cy="4" r="14" fill="none" stroke="#2288dd" stroke-width="1"/>
  </g>
  <g transform="translate(160,32) rotate(90)">
    <rect x="-19.0" y="-10.0" width="7" height="24" rx="2" fill="#808080" stroke="#606060" stroke-width="1"/>
    <rect x="12.0" y="-10.0" width="7" height="24" rx="2" fill="#808080" stroke="#606060" stroke-width="1"/>
    <rect x="-12.0" y="-8.0" width="24" height="20" rx="2" fill="#c8c8c8" stroke="#808080" stroke-width="1"/>
    <circle cx="0" cy="4" r="8" fill="#b0b0b0" stroke="#808080" stroke-width="1"/>
    <rect x="-1.5" y="-16.0" width="3" height="14" rx="1" fill="#909090" stroke="#707070" stroke-width="1"/>
    <circle cx="0" cy="4" r="2.8" fill="#a0a0a0" stroke="#707070" stroke-width="1"/>
    <circle cx="0" cy="4" r="12" fill="none" stroke="#44aaff" stroke-width="1"/>
    <circle cx="0" cy="4" r="14" fill="none" stroke="#2288dd" stroke-width="1"/>
  </g>
  <g transform="translate(224,32) rotate(135)">
    <rect x="-19.0" y="-10.0" width="7" height="24" rx="2" fill="#808080" stroke="#606060" stroke-width="1"/>
    <rect x="12.0" y="-10.0" width="7" height="24" rx="2" fill="#808080" stroke="#606060" stroke-width="1"/>
    <rect x="-12.0" y="-8.0" width="24" height="20" rx="2" fill="#c8c8c8" stroke="#808080" stroke-width="1"/>
    <circle cx="0" cy="4" r="8" fill="#b0b0b0" stroke="#808080" stroke-width="1"/>
    <rect x="-1.5" y="-16.0" width="3" height="14" rx="1" fill="#909090" stroke="#707070" stroke-width="1"/>
    <circle cx="0" cy="4" r="2.8" fill="#a0a0a0" stroke="#707070" stroke-width="1"/>
    <circle cx="0" cy="4" r="12" fill="none" stroke="#44aaff" stroke-width="1"/>
    <circle cx="0" cy="4" r="14" fill="none" stroke="#2288dd" stroke-width="1"/>
  </g>
  <g transform="translate(288,32) rotate(180)">
    <rect x="-19.0" y="-10.0" width="7" height="24" rx="2" fill="#808080" stroke="#606060" stroke-width="1"/>
    <rect x="12.0" y="-10.0" width="7" height="24" rx="2" fill="#808080" stroke="#606060" stroke-width="1"/>
    <rect x="-12.0" y="-8.0" width="24" height="20" rx="2" fill="#c8c8c8" stroke="#808080" stroke-width="1"/>
    <circle cx="0" cy="4" r="8" fill="#b0b0b0" stroke="#808080" stroke-width="1"/>
    <rect x="-1.5" y="-16.0" width="3" height="14" rx="1" fill="#909090" stroke="#707070" stroke-width="1"/>
    <circle cx="0" cy="4" r="2.8" fill="#a0a0a0" stroke="#707070" stroke-width="1"/>
    <circle cx="0" cy="4" r="12" fill="none" stroke="#44aaff" stroke-width="1"/>
    <circle cx="0" cy="4" r="14" fill="none" stroke="#2288dd" stroke-width="1"/>
  </g>
  <g transform="translate(352,32) rotate(225)">
    <rect x="-19.0" y="-10.0" width="7" height="24" rx="2" fill="#808080" stroke="#606060" stroke-width="1"/>
    <rect x="12.0" y="-10.0" width="7" height="24" rx="2" fill="#808080" stroke="#606060" stroke-width="1"/>
    <rect x="-12.0" y="-8.0" width="24" height="20" rx="2" fill="#c8c8c8" stroke="#808080" stroke-width="1"/>
    <circle cx="0" cy="4" r="8" fill="#b0b0b0" stroke="#808080" stroke-width="1"/>
    <rect x="-1.5" y="-16.0" width="3" height="14" rx="1" fill="#909090" stroke="#707070" stroke-width="1"/>
    <circle cx="0" cy="4" r="2.8" fill="#a0a0a0" stroke="#707070" stroke-width="1"/>
    <circle cx="0" cy="4" r="12" fill="none" stroke="#44aaff" stroke-width="1"/>
    <circle cx="0" cy="4" r="14" fill="none" stroke="#2288dd" stroke-width="1"/>
  </g>
  <g transform="translate(416,32) rotate(270)">
    <rect x="-19.0" y="-10.0" width="7" height="24" rx="2" fill="#808080" stroke="#606060" stroke-width="1"/>
    <rect x="12.0" y="-10.0" width="7" height="24" rx="2" fill="#808080" stroke="#606060" stroke-width="1"/>
    <rect x="-12.0" y="-8.0" width="24" height="20" rx="2" fill="#c8c8c8" stroke="#808080" stroke-width="1"/>
    <circle cx="0" cy="4" r="8" fill="#b0b0b0" stroke="#808080" stroke-width="1"/>
    <rect x="-1.5" y="-16.0" width="3" height="14" rx="1" fill="#909090" stroke="#707070" stroke-width="1"/>
    <circle cx="0" cy="4" r="2.8" fill="#a0a0a0" stroke="#707070" stroke-width="1"/>
    <circle cx="0" cy="4" r="12" fill="none" stroke="#44aaff" stroke-width="1"/>
    <circle cx="0" cy="4" r="14" fill="none" stroke="#2288dd" stroke-width="1"/>
  </g>
  <g transform="translate(480,32) rotate(315)">
    <rect x="-19.0" y="-10.0" width="7" height="24" rx="2" fill="#808080" stroke="#606060" stroke-width="1"/>
    <rect x="12.0" y="-10.0" width="7" height="24" rx="2" fill="#808080" stroke="#606060" stroke-width="1"/>
    <rect x="-12.0" y="-8.0" width="24" height="20" rx="2" fill="#c8c8c8" stroke="#808080" stroke-width="1"/>
    <circle cx="0" cy="4" r="8" fill="#b0b0b0" stroke="#808080" stroke-width="1"/>
    <rect x="-1.5" y="-16.0" width="3" height="14" rx="1" fill="#909090" stroke="#707070" stroke-width="1"/>
    <circle cx="0" cy="4" r="2.8" fill="#a0a0a0" stroke="#707070" stroke-width="1"/>
    <circle cx="0" cy="4" r="12" fill="none" stroke="#44aaff" stroke-width="1"/>
    <circle cx="0" cy="4" r="14" fill="none" stroke="#2288dd" stroke-width="1"/>
  </g>
</svg>
