<svg xmlns="http://www.w3.org/2000/svg" viewBox="0 0 512 64" width="512" height="64">
  <g transform="translate(32,32) rotate(0)">
    <polygon points="0,-11.0 4.0,-3.0 4.0,9.0 -4.0,9.0 -4.0,-3.0" fill="#707878" stroke="#505060" stroke-width="1"/>
    <rect x="-3.0" y="-1.0" width="6" height="6" rx="1" fill="#606870" stroke="#505060" stroke-width="1"/>
    <rect x="-1.0" y="-10.0" width="2" height="8" rx="1" fill="#505060" stroke="#404050" stroke-width="1"/>
  </g>
  <g transform="translate(96,32) rotate(45)">
    <polygon points="0,-11.0 4.0,-3.0 4.0,9.0 -4.0,9.0 -4.0,-3.0" fill="#707878" stroke="#505060" stroke-width="1"/>
    <rect x="-3.0" y="-1.0" width="6" height="6" rx="1" fill="#606870" stroke="#505060" stroke-width="1"/>
    <rect x="-1.0" y="-10.0" width="2" height="8" rx="1" fill="#505060" stroke="#404050" stroke-width="1"/>
  </g>
  <g transform="translate(160,32) rotate(90)">
    <polygon points="0,-11.0 4.0,-3.0 4.0,9.0 -4.0,9.0 -4.0,-3.0" fill="#707878" stroke="#505060" stroke-width="1"/>
    <rect x="-3.0" y="-1.0" width="6" height="6" rx="1" fill="#606870" stroke="#505060" stroke-width="1"/>
    <rect x="-1.0" y="-10.0" width="2" height="8" rx="1" fill="#505060" stroke="#404050" stroke-width="1"/>
  </g>
  <g transform="translate(224,32) rotate(135)">
    <polygon points="0,-11.0 4.0,-3.0 4.0,9.0 -4.0,9.0 -4.0,-3.0" fill="#707878" stroke="#505060" stroke-width="1"/>
    <rect x="-3.0" y="-1.0" width="6" height="6" rx="1" fill="#606870" stroke="#505060" stroke-width="1"/>
    <rect x="-1.0" y="-10.0" width="2" height="8" rx="1" fill="#505060" stroke="#404050" stroke-width="1"/>
  </g>
  <g transform="translate(288,32) rotate(180)">
    <polygon points="0,-11.0 4.0,-3.0 4.0,9.0 -4.0,9.0 -4.0,-3.0" fill="#707878" stroke="#505060" stroke-width="1"/>
    <rect x="-3.0" y="-1.0" width="6" height="6" rx="1" fill="#606870" stroke="#505060" stroke-width="1"/>
    <rect x="-1.0" y="-10.0" width="2" height="8" rx="1" fill="#505060" stroke="#404050" stroke-width="1"/>
  </g>
  <g transform="translate(352,32) rotate(225)">
    <polygon points="0,-11.0 4.0,-3.0 4.0,9.0 -4.0,9.0 -4.0,-3.0" fill="#707878" stroke="#505060" stroke-width="1"/>
    <rect x="-3.0" y="-1.0" width="6" height="6" rx="1" fill="#606870" stroke="#505060" stroke-width="1"/>
    <rect x="-1.0" y="-10.0" width="2" height="8" rx="1" fill="#505060" stroke="#404050" stroke-width="1"/>
  </g>
  <g transform="translate(416,32) rotate(270)">
    <polygon points="0,-11.0 4.0,-3.0 4.0,9.0 -4.0,9.0 -4.0,-3.0" fill="#707878" stroke="#505060" stroke-width="1"/>
    <rect x="-3.0" y="-1.0" width="6" height="6" rx="1" fill="#606870" stroke="#505060" stroke-width="1"/>
    <rect x="-1.0" y="-10.0" width="2" height="8" rx="1" fill="#505060" stroke="#404050" stroke-width="1"/>
  </g>
  <g transform="translate(480,32) rotate(315)">
    <polygon points="0,-11.0 4.0,-3.0 4.0,9.0 -4.0,9.0 -4.0,-3.0" fill="#707878" stroke="#505060" stroke-width="1"/>
    <rect x="-3.0" y="-1.0" width="6" height="6" rx="1" fill="#606870" stroke="#505060" stroke-width="1"/>
    <rect x="-1.0" y="-10.0" width="2" height="8" rx="1" fill="#505060" stroke="#404050" stroke-width="1"/>
  </g>
</svg>
