<svg xmlns="http://www.w3.org/2000/svg" viewBox="0 0 512 64" width="512" height="64">
  <g transform="translate(32,32) rotate(0)">
    <ellipse cx="0" cy="2" rx="7" ry="7.0" fill="#808880" stroke="#606860" stroke-width="1"/>
    <rect x="-1.5" y="7.0" width="3" height="12" rx="0" fill="#708070" stroke="#506050" stroke-width="1"/>
    <line x1="-14" y1="-2" x2="14" y2="-2" stroke="#404040" stroke-width="1.5"/>
    <line x1="0" y1="-11.799999999999999" x2="0" y2="7.799999999999999" stroke="#404040" stroke-width="1.5"/>
    <circle cx="0" cy="-2" r="2" fill="#909090" stroke="#707070" stroke-width="1"/>
    <circle cx="0" cy="0" r="2.8000000000000003" fill="#a0a8a0" stroke="#707070" stroke-width="1"/>
  </g>
  <g transform="translate(96,32) rotate(45)">
    <ellipse cx="0" cy="2" rx="7" ry="7.0" fill="#808880" stroke="#606860" stroke-width="1"/>
    <rect x="-1.5" y="7.0" width="3" height="12" rx="0" fill="#708070" stroke="#506050" stroke-width="1"/>
    <line x1="-14" y1="-2" x2="14" y2="-2" stroke="#404040" stroke-width="1.5"/>
    <line x1="0" y1="-11.799999999999999" x2="0" y2="7.799999999999999" stroke="#404040" stroke-width="1.5"/>
    <circle cx="0" cy="-2" r="2" fill="#909090" stroke="#707070" stroke-width="1"/>
    <circle cx="0" cy="0" r="2.8000000000000003" fill="#a0a8a0" stroke="#707070" stroke-width="1"/>
  </g>
  <g transform="translate(160,32) rotate(90)">
    <ellipse cx="0" cy="2" rx="7" ry="7.0" fill="#808880" stroke="#606860" stroke-width="1"/>
    <rect x="-1.5" y="7.0" width="3" height="12" rx="0" fill="#708070" stroke="#506050" stroke-width="1"/>
    <line x1="-14" y1="-2" x2="14" y2="-2" stroke="#404040" stroke-width="1.5"/>
    <line x1="0" y1="-11.799999999999999" x2="0" y2="7.799999999999999" stroke="#404040" stroke-width="1.5"/>
    <circle cx="0" cy="-2" r="2" fill="#909090" stroke="#707070" stroke-width="1"/>
    <circle cx="0" cy="0" r="2.8000000000000003" fill="#a0a8a0" stroke="#707070" stroke-width="1"/>
  </g>
  <g transform="translate(224,32) rotate(135)">
    <ellipse cx="0" cy="2" rx="7" ry="7.0" fill="#808880" stroke="#606860" stroke-width="1"/>
    <rect x="-1.5" y="7.0" width="3" height="12" rx="0" fill="#708070" stroke="#506050" stroke-width="1"/>
    <line x1="-14" y1="-2" x2="14" y2="-2" stroke="#404040" stroke-width="1.5"/>
    <line x1="0" y1="-11.799999999999999" x2="0" y2="7.799999999999999" stroke="#404040" stroke-width="1.5"/>
    <circle cx="0" cy="-2" r="2" fill="#909090" stroke="#707070" stroke-width="1"/>
    <circle cx="0" cy="0" r="2.8000000000000003" fill="#a0a8a0" stroke="#707070" stroke-width="1"/>
  </g>
  <g transform="translate(288,32) rotate(180)">
    <ellipse cx="0" cy="2" rx="7" ry="7.0" fill="#808880" stroke="#606860" stroke-width="1"/>
    <rect x="-1.5" y="7.0" width="3" height="12" rx="0" fill="#708070" stroke="#506050" stroke-width="1"/>
    <line x1="-14" y1="-2" x2="14" y2="-2" stroke="#404040" stroke-width="1.5"/>
    <line x1="0" y1="-11.799999999999999" x2="0" y2="7.799999999999999" stroke="#404040" stroke-width="1.5"/>
    <circle cx="0" cy="-2" r="2" fill="#909090" stroke="#707070" stroke-width="1"/>
    <circle cx="0" cy="0" r="2.8000000000000003" fill="#a0a8a0" stroke="#707070" stroke-width="1"/>
  </g>
  <g transform="translate(352,32) rotate(225)">
    <ellipse cx="0" cy="2" rx="7" ry="7.0" fill="#808880" stroke="#606860" stroke-width="1"/>
    <rect x="-1.5" y="7.0" width="3" height="12" rx="0" fill="#708070" stroke="#506050" stroke-width="1"/>
    <line x1="-14" y1="-2" x2="14" y2="-2" stroke="#404040" stroke-width="1.5"/>
    <line x1="0" y1="-11.799999999999999" x2="0" y2="7.799999999999999" stroke="#404040" stroke-width="1.5"/>
    <circle cx="0" cy="-2" r="2" fill="#909090" stroke="#707070" stroke-width="1"/>
    <circle cx="0" cy="0" r="2.8000000000000003" fill="#a0a8a0" stroke="#707070" stroke-width="1"/>
  </g>
  <g transform="translate(416,32) rotate(270)">
    <ellipse cx="0" cy="2" rx="7" ry="7.0" fill="#808880" stroke="#606860" stroke-width="1"/>
    <rect x="-1.5" y="7.0" width="3" height="12" rx="0" fill="#708070" stroke="#506050" stroke-width="1"/>
    <line x1="-14" y1="-2" x2="14" y2="-2" stroke="#404040" stroke-width="1.5"/>
    <line x1="0" y1="-11.799999999999999" x2="0" y2="7.799999999999999" stroke="#404040" stroke-width="1.5"/>
    <circle cx="0" cy="-2" r="2" fill="#909090" stroke="#707070" stroke-width="1"/>
    <circle cx="0" cy="0" r="2.8000000000000003" fill="#a0a8a0" stroke="#707070" stroke-width="1"/>
  </g>
  <g transform="translate(480,32) rotate(315)">
    <ellipse cx="0" cy="2" rx="7" ry="7.0" fill="#808880" stroke="#606860" stroke-width="1"/>
    <rect x="-1.5" y="7.0" width="3" height="12" rx="0" fill="#708070" stroke="#506050" stroke-width="1"/>
    <line x1="-14" y1="-2" x2="14" y2="-2" stroke="#404040" stroke-width="1.5"/>
    <line x1="0" y1="-11.799999999999999" x2="0" y2="7.799999999999999" stroke="#404040" stroke-width="1.5"/>
    <circle cx="0" cy="-2" r="2" fill="#909090" stroke="#707070" stroke-width="1"/>
    <circle cx="0" cy="0" r="2.8000000000000003" fill="#a0a8a0" stroke="#707070" stroke-width="1"/>
  </g>
</svg>
