<svg xmlns="http://www.w3.org/2000/svg" viewBox="0 0 512 64" width="512" height="64">
  <g transform="translate(32,32) rotate(0)">
    <rect x="-23.0" y="-13.0" width="7" height="30" rx="2" fill="#808080" stroke="#606060" stroke-width="1"/>
    <rect x="16.0" y="-13.0" width="7" height="30" rx="2" fill="#808080" stroke="#606060" stroke-width="1"/>
    <rect x="-16.0" y="-11.0" width="32" height="26" rx="2" fill="#c8c8c8" stroke="#808080" stroke-width="1"/>
    <circle cx="0" cy="4" r="11" fill="#b0b0b0" stroke="#808080" stroke-width="1"/>
    <rect x="-4.5" y="-22.0" width="3" height="20" rx="1" fill="#909090" stroke="#707070" stroke-width="1"/>
    <rect x="1.5" y="-22.0" width="3" height="20" rx="1" fill="#909090" stroke="#707070" stroke-width="1"/>
    <circle cx="0" cy="4" r="3.8499999999999996" fill="#a0a0a0" stroke="#707070" stroke-width="1"/>
  </g>
  <g transform="translate(96,32) rotate(45)">
    <rect x="-23.0" y="-13.0" width="7" height="30" rx="2" fill="#808080" stroke="#606060" stroke-width="1"/>
    <rect x="16.0" y="-13.0" width="7" height="30" rx="2" fill="#808080" stroke="#606060" stroke-width="1"/>
    <rect x="-16.0" y="-11.0" width="32" height="26" rx="2" fill="#c8c8c8" stroke="#808080" stroke-width="1"/>
    <circle cx="0" cy="4" r="11" fill="#b0b0b0" stroke="#808080" stroke-width="1"/>
    <rect x="-4.5" y="-22.0" width="3" height="20" rx="1" fill="#909090" stroke="#707070" stroke-width="1"/>
    <rect x="1.5" y="-22.0" width="3" height="20" rx="1" fill="#909090" stroke="#707070" stroke-width="1"/>
    <circle cx="0" cy="4" r="3.8499999999999996" fill="#a0a0a0" stroke="#707070" stroke-width="1"/>
  </g>
  <g transform="translate(160,32) rotate(90)">
    <rect x="-23.0" y="-13.0" width="7" height="30" rx="2" fill="#808080" stroke="#606060" stroke-width="1"/>
    <rect x="16.0" y="-13.0" width="7" height="30" rx="2" fill="#808080" stroke="#606060" stroke-width="1"/>
    <rect x="-16.0" y="-11.0" width="32" height="26" rx="2" fill="#c8c8c8" stroke="#808080" stroke-width="1"/>
    <circle cx="0" cy="4" r="11" fill="#b0b0b0" stroke="#808080" stroke-width="1"/>
    <rect x="-4.5" y="-22.0" width="3" height="20" rx="1" fill="#909090" stroke="#707070" stroke-width="1"/>
    <rect x="1.5" y="-22.0" width="3" height="20" rx="1" fill="#909090" stroke="#707070" stroke-width="1"/>
    <circle cx="0" cy="4" r="3.8499999999999996" fill="#a0a0a0" stroke="#707070" stroke-width="1"/>
  </g>
  <g transform="translate(224,32) rotate(135)">
    <rect x="-23.0" y="-13.0" width="7" height="30" rx="2" fill="#808080" stroke="#606060" stroke-width="1"/>
    <rect x="16.0" y="-13.0" width="7" height="30" rx="2" fill="#808080" stroke="#606060" stroke-width="1"/>
    <rect x="-16.0" y="-11.0" width="32" height="26" rx="2" fill="#c8c8c8" stroke="#808080" stroke-width="1"/>
    <circle cx="0" cy="4" r="11" fill="#b0b0b0" stroke="#808080" stroke-width="1"/>
    <rect x="-4.5" y="-22.0" width="3" height="20" rx="1" fill="#909090" stroke="#707070" stroke-width="1"/>
    <rect x="1.5" y="-22.0" width="3" height="20" rx="1" fill="#909090" stroke="#707070" stroke-width="1"/>
    <circle cx="0" cy="4" r="3.8499999999999996" fill="#a0a0a0" stroke="#707070" stroke-width="1"/>
  </g>
  <g transform="translate(288,32) rotate(180)">
    <rect x="-23.0" y="-13.0" width="7" height="30" rx="2" fill="#808080" stroke="#606060" stroke-width="1"/>
    <rect x="16.0" y="-13.0" width="7" height="30" rx="2" fill="#808080" stroke="#606060" stroke-width="1"/>
    <rect x="-16.0" y="-11.0" width="32" height="26" rx="2" fill="#c8c8c8" stroke="#808080" stroke-width="1"/>
    <circle cx="0" cy="4" r="11" fill="#b0b0b0" stroke="#808080" stroke-width="1"/>
    <rect x="-4.5" y="-22.0" width="3" height="20" rx="1" fill="#909090" stroke="#707070" stroke-width="1"/>
    <rect x="1.5" y="-22.0" width="3" height="20" rx="1" fill="#909090" stroke="#707070" stroke-width="1"/>
    <circle cx="0" cy="4" r="3.8499999999999996" fill="#a0a0a0" stroke="#707070" stroke-width="1"/>
  </g>
  <g transform="translate(352,32) rotate(225)">
    <rect x="-23.0" y="-13.0" width="7" height="30" rx="2" fill="#808080" stroke="#606060" stroke-width="1"/>
    <rect x="16.0" y="-13.0" width="7" height="30" rx="2" fill="#808080" stroke="#606060" stroke-width="1"/>
    <rect x="-16.0" y="-11.0" width="32" height="26" rx="2" fill="#c8c8c8" stroke="#808080" stroke-width="1"/>
    <circle cx="0" cy="4" r="11" fill="#b0b0b0" stroke="#808080" stroke-width="1"/>
    <rect x="-4.5" y="-22.0" width="3" height="20" rx="1" fill="#909090" stroke="#707070" stroke-width="1"/>
    <rect x="1.5" y="-22.0" width="3" height="20" rx="1" fill="#909090" stroke="#707070" stroke-width="1"/>
    <circle cx="0" cy="4" r="3.8499999999999996" fill="#a0a0a0" stroke="#707070" stroke-width="1"/>
  </g>
  <g transform="translate(416,32) rotate(270)">
    <rect x="-23.0" y="-13.0" width="7" height="30" rx="2" fill="#808080" stroke="#606060" stroke-width="1"/>
    <rect x="16.0" y="-13.0" width="7" height="30" rx="2" fill="#808080" stroke="#606060" stroke-width="1"/>
    <rect x="-16.0" y="-11.0" width="32" height="26" rx="2" fill="#c8c8c8" stroke="#808080" stroke-width="1"/>
    <circle cx="0" cy="4" r="11" fill="#b0b0b0" stroke="#808080" stroke-width="1"/>
    <rect x="-4.5" y="-22.0" width="3" height="20" rx="1" fill="#909090" stroke="#707070" stroke-width="1"/>
    <rect x="1.5" y="-22.0" width="3" height="20" rx="1" fill="#909090" stroke="#707070" stroke-width="1"/>
    <circle cx="0" cy="4" r="3.8499999999999996" fill="#a0a0a0" stroke="#707070" stroke-width="1"/>
  </g>
  <g transform="translate(480,32) rotate(315)">
    <rect x="-23.0" y="-13.0" width="7" height="30" rx="2" fill="#808080" stroke="#606060" stroke-width="1"/>
    <rect x="16.0" y="-13.0" width="7" height="30" rx="2" fill="#808080" stroke="#606060" stroke-width="1"/>
    <rect x="-16.0" y="-11.0" width="32" height="26" rx="2" fill="#c8c8c8" stroke="#808080" stroke-width="1"/>
    <circle cx="0" cy="4" r="11" fill="#b0b0b0" stroke="#808080" stroke-width="1"/>
    <rect x="-4.5" y="-22.0" width="3" height="20" rx="1" fill="#909090" stroke="#707070" stroke-width="1"/>
    <rect x="1.5" y="-22.0" width="3" height="20" rx="1" fill="#909090" stroke="#707070" stroke-width="1"/>
    <circle cx="0" cy="4" r="3.8499999999999996" fill="#a0a0a0" stroke="#707070" stroke-width="1"/>
  </g>
</svg>
