<svg xmlns="http://www.w3.org/2000/svg" viewBox="0 0 512 64" width="512" height="64">
  <g transform="translate(32,32) rotate(0)">
    <rect x="-22.0" y="-17.0" width="7" height="34" rx="2" fill="#808080" stroke="#606060" stroke-width="1"/>
    <rect x="15.0" y="-17.0" width="7" height="34" rx="2" fill="#808080" stroke="#606060" stroke-width="1"/>
    <rect x="-15.0" y="-15.0" width="30" height="30" rx="2" fill="#b0a898" stroke="#808080" stroke-width="1"/>
    <rect x="-12.0" y="-12.0" width="24" height="24" rx="3" fill="#c8b8a8" stroke="#908070" stroke-width="1"/>
    <rect x="-9.0" y="-8.0" width="18" height="8" rx="2" fill="#a09888" stroke="#807060" stroke-width="1"/>
    <rect x="-9.0" y="2.0" width="18" height="8" rx="2" fill="#a09888" stroke="#807060" stroke-width="1"/>
  </g>
  <g transform="translate(96,32) rotate(45)">
    <rect x="-22.0" y="-17.0" width="7" height="34" rx="2" fill="#808080" stroke="#606060" stroke-width="1"/>
    <rect x="15.0" y="-17.0" width="7" height="34" rx="2" fill="#808080" stroke="#606060" stroke-width="1"/>
    <rect x="-15.0" y="-15.0" width="30" height="30" rx="2" fill="#b0a898" stroke="#808080" stroke-width="1"/>
    <rect x="-12.0" y="-12.0" width="24" height="24" rx="3" fill="#c8b8a8" stroke="#908070" stroke-width="1"/>
    <rect x="-9.0" y="-8.0" width="18" height="8" rx="2" fill="#a09888" stroke="#807060" stroke-width="1"/>
    <rect x="-9.0" y="2.0" width="18" height="8" rx="2" fill="#a09888" stroke="#807060" stroke-width="1"/>
  </g>
  <g transform="translate(160,32) rotate(90)">
    <rect x="-22.0" y="-17.0" width="7" height="34" rx="2" fill="#808080" stroke="#606060" stroke-width="1"/>
    <rect x="15.0" y="-17.0" width="7" height="34" rx="2" fill="#808080" stroke="#606060" stroke-width="1"/>
    <rect x="-15.0" y="-15.0" width="30" height="30" rx="2" fill="#b0a898" stroke="#808080" stroke-width="1"/>
    <rect x="-12.0" y="-12.0" width="24" height="24" rx="3" fill="#c8b8a8" stroke="#908070" stroke-width="1"/>
    <rect x="-9.0" y="-8.0" width="18" height="8" rx="2" fill="#a09888" stroke="#807060" stroke-width="1"/>
    <rect x="-9.0" y="2.0" width="18" height="8" rx="2" fill="#a09888" stroke="#807060" stroke-width="1"/>
  </g>
  <g transform="translate(224,32) rotate(135)">
    <rect x="-22.0" y="-17.0" width="7" height="34" rx="2" fill="#808080" stroke="#606060" stroke-width="1"/>
    <rect x="15.0" y="-17.0" width="7" height="34" rx="2" fill="#808080" stroke="#606060" stroke-width="1"/>
    <rect x="-15.0" y="-15.0" width="30" height="30" rx="2" fill="#b0a898" stroke="#808080" stroke-width="1"/>
    <rect x="-12.0" y="-12.0" width="24" height="24" rx="3" fill="#c8b8a8" stroke="#908070" stroke-width="1"/>
    <rect x="-9.0" y="-8.0" width="18" height="8" rx="2" fill="#a09888" stroke="#807060" stroke-width="1"/>
    <rect x="-9.0" y="2.0" width="18" height="8" rx="2" fill="#a09888" stroke="#807060" stroke-width="1"/>
  </g>
  <g transform="translate(288,32) rotate(180)">
    <rect x="-22.0" y="-17.0" width="7" height="34" rx="2" fill="#808080" stroke="#606060" stroke-width="1"/>
    <rect x="15.0" y="-17.0" width="7" height="34" rx="2" fill="#808080" stroke="#606060" stroke-width="1"/>
    <rect x="-15.0" y="-15.0" width="30" height="30" rx="2" fill="#b0a898" stroke="#808080" stroke-width="1"/>
    <rect x="-12.0" y="-12.0" width="24" height="24" rx="3" fill="#c8b8a8" stroke="#908070" stroke-width="1"/>
    <rect x="-9.0" y="-8.0" width="18" height="8" rx="2" fill="#a09888" stroke="#807060" stroke-width="1"/>
    <rect x="-9.0" y="2.0" width="18" height="8" rx="2" fill="#a09888" stroke="#807060" stroke-width="1"/>
  </g>
  <g transform="translate(352,32) rotate(225)">
    <rect x="-22.0" y="-17.0" width="7" height="34" rx="2" fill="#808080" stroke="#606060" stroke-width="1"/>
    <rect x="15.0" y="-17.0" width="7" height="34" rx="2" fill="#808080" stroke="#606060" stroke-width="1"/>
    <rect x="-15.0" y="-15.0" width="30" height="30" rx="2" fill="#b0a898" stroke="#808080" stroke-width="1"/>
    <rect x="-12.0" y="-12.0" width="24" height="24" rx="3" fill="#c8b8a8" stroke="#908070" stroke-width="1"/>
    <rect x="-9.0" y="-8.0" width="18" height="8" rx="2" fill="#a09888" stroke="#807060" stroke-width="1"/>
    <rect x="-9.0" y="2.0" width="18" height="8" rx="2" fill="#a09888" stroke="#807060" stroke-width="1"/>
  </g>
  <g transform="translate(416,32) rotate(270)">
    <rect x="-22.0" y="-17.0" width="7" height="34" rx="2" fill="#808080" stroke="#606060" stroke-width="1"/>
    <rect x="15.0" y="-17.0" width="7" height="34" rx="2" fill="#808080" stroke="#606060" stroke-width="1"/>
    <rect x="-15.0" y="-15.0" width="30" height="30" rx="2" fill="#b0a898" stroke="#808080" stroke-width="1"/>
    <rect x="-12.0" y="-12.0" width="24" height="24" rx="3" fill="#c8b8a8" stroke="#908070" stroke-width="1"/>
    <rect x="-9.0" y="-8.0" width="18" height="8" rx="2" fill="#a09888" stroke="#807060" stroke-width="1"/>
    <rect x="-9.0" y="2.0" width="18" height="8" rx="2" fill="#a09888" stroke="#807060" stroke-width="1"/>
  </g>
  <g transform="translate(480,32) rotate(315)">
    <rect x="-22.0" y="-17.0" width="7" height="34" rx="2" fill="#808080" stroke="#606060" stroke-width="1"/>
    <rect x="15.0" y="-17.0" width="7" height="34" rx="2" fill="#808080" stroke="#606060" stroke-width="1"/>
    <rect x="-15.0" y="-15.0" width="30" height="30" rx="2" fill="#b0a898" stroke="#808080" stroke-width="1"/>
    <rect x="-12.0" y="-12.0" width="24" height="24" rx="3" fill="#c8b8a8" stroke="#908070" stroke-width="1"/>
    <rect x="-9.0" y="-8.0" width="18" height="8" rx="2" fill="#a09888" stroke="#807060" stroke-width="1"/>
    <rect x="-9.0" y="2.0" width="18" height="8" rx="2" fill="#a09888" stroke="#807060" stroke-width="1"/>
  </g>
</svg>
