<svg xmlns="http://www.w3.org/2000/svg" viewBox="0 0 512 64" width="512" height="64">
  <g transform="translate(32,32) rotate(0)">
    <rect x="-3.0" y="-12.0" width="6" height="24" rx="2" fill="#909090" stroke="#707070" stroke-width="1"/>
    <polygon points="-11.0,2 0,-4 11.0,2" fill="#808080" stroke="#606060" stroke-width="1"/>
    <polygon points="-6,10.0 0,4.0 6,10.0" fill="#707070" stroke="#505050" stroke-width="1"/>
    <circle cx="0" cy="-6.0" r="3" fill="#b0b0b0" stroke="#808080" stroke-width="1"/>
  </g>
  <g transform="translate(96,32) rotate(45)">
    <rect x="-3.0" y="-12.0" width="6" height="24" rx="2" fill="#909090" stroke="#707070" stroke-width="1"/>
    <polygon points="-11.0,2 0,-4 11.0,2" fill="#808080" stroke="#606060" stroke-width="1"/>
    <polygon points="-6,10.0 0,4.0 6,10.0" fill="#707070" stroke="#505050" stroke-width="1"/>
    <circle cx="0" cy="-6.0" r="3" fill="#b0b0b0" stroke="#808080" stroke-width="1"/>
  </g>
  <g transform="translate(160,32) rotate(90)">
    <rect x="-3.0" y="-12.0" width="6" height="24" rx="2" fill="#909090" stroke="#707070" stroke-width="1"/>
    <polygon points="-11.0,2 0,-4 11.0,2" fill="#808080" stroke="#606060" stroke-width="1"/>
    <polygon points="-6,10.0 0,4.0 6,10.0" fill="#707070" stroke="#505050" stroke-width="1"/>
    <circle cx="0" cy="-6.0" r="3" fill="#b0b0b0" stroke="#808080" stroke-width="1"/>
  </g>
  <g transform="translate(224,32) rotate(135)">
    <rect x="-3.0" y="-12.0" width="6" height="24" rx="2" fill="#909090" stroke="#707070" stroke-width="1"/>
    <polygon points="-11.0,2 0,-4 11.0,2" fill="#808080" stroke="#606060" stroke-width="1"/>
    <polygon points="-6,10.0 0,4.0 6,10.0" fill="#707070" stroke="#505050" stroke-width="1"/>
    <circle cx="0" cy="-6.0" r="3" fill="#b0b0b0" stroke="#808080" stroke-width="1"/>
  </g>
  <g transform="translate(288,32) rotate(180)">
    <rect x="-3.0" y="-12.0" width="6" height="24" rx="2" fill="#909090" stroke="#707070" stroke-width="1"/>
    <polygon points="-11.0,2 0,-4 11.0,2" fill="#808080" stroke="#606060" stroke-width="1"/>
    <polygon points="-6,10.0 0,4.0 6,10.0" fill="#707070" stroke="#505050" stroke-width="1"/>
    <circle cx="0" cy="-6.0" r="3" fill="#b0b0b0" stroke="#808080" stroke-width="1"/>
  </g>
  <g transform="translate(352,32) rotate(225)">
    <rect x="-3.0" y="-12.0" width="6" height="24" rx="2" fill="#909090" stroke="#707070" stroke-width="1"/>
    <polygon points="-11.0,2 0,-4 11.0,2" fill="#808080" stroke="#606060" stroke-width="1"/>
    <polygon points="-6,10.0 0,4.0 6,10.0" fill="#707070" stroke="#505050" stroke-width="1"/>
    <circle cx="0" cy="-6.0" r="3" fill="#b0b0b0" stroke="#808080" stroke-width="1"/>
  </g>
  <g transform="translate(416,32) rotate(270)">
    <rect x="-3.0" y="-12.0" width="6" height="24" rx="2" fill="#909090" stroke="#707070" stroke-width="1"/>
    <polygon points="-11.0,2 0,-4 11.0,2" fill="#808080" stroke="#606060" stroke-width="1"/>
    <polygon points="-6,10.0 0,4.0 6,10.0" fill="#707070" stroke="#505050" stroke-width="1"/>
    <circle cx="0" cy="-6.0" r="3" fill="#b0b0b0" stroke="#808080" stroke-width="1"/>
  </g>
  <g transform="translate(480,32) rotate(315)">
    <rect x="-3.0" y="-12.0" width="6" height="24" rx="2" fill="#909090" stroke="#707070" stroke-width="1"/>
    <polygon points="-11.0,2 0,-4 11.0,2" fill="#808080" stroke="#606060" stroke-width="1"/>
    <polygon points="-6,10.0 0,4.0 6,10.0" fill="#707070" stroke="#505050" stroke-width="1"/>
    <circle cx="0" cy="-6.0" r="3" fill="#b0b0b0" stroke="#808080" stroke-width="1"/>
  </g>
</svg>
