<svg xmlns="http://www.w3.org/2000/svg" viewBox="0 0 512 64" width="512" height="64">
  <g transform="translate(32,32) rotate(0)">
    <rect x="-19.0" y="-16.0" width="7" height="32" rx="2" fill="#808080" stroke="#606060" stroke-width="1"/>
    <rect x="12.0" y="-16.0" width="7" height="32" rx="2" fill="#808080" stroke="#606060" stroke-width="1"/>
    <rect x="-12.0" y="-14.0" width="24" height="28" rx="2" fill="#c8b870" stroke="#808080" stroke-width="1"/>
    <rect x="-9.0" y="-10.0" width="18" height="12" rx="2" fill="#a8a060" stroke="#808040" stroke-width="1"/>
    <rect x="-9.0" y="3.0" width="18" height="10" rx="2" fill="#b0a858" stroke="#908838" stroke-width="1"/>
  </g>
  <g transform="translate(96,32) rotate(45)">
    <rect x="-19.0" y="-16.0" width="7" height="32" rx="2" fill="#808080" stroke="#606060" stroke-width="1"/>
    <rect x="12.0" y="-16.0" width="7" height="32" rx="2" fill="#808080" stroke="#606060" stroke-width="1"/>
    <rect x="-12.0" y="-14.0" width="24" height="28" rx="2" fill="#c8b870" stroke="#808080" stroke-width="1"/>
    <rect x="-9.0" y="-10.0" width="18" height="12" rx="2" fill="#a8a060" stroke="#808040" stroke-width="1"/>
    <rect x="-9.0" y="3.0" width="18" height="10" rx="2" fill="#b0a858" stroke="#908838" stroke-width="1"/>
  </g>
  <g transform="translate(160,32) rotate(90)">
    <rect x="-19.0" y="-16.0" width="7" height="32" rx="2" fill="#808080" stroke="#606060" stroke-width="1"/>
    <rect x="12.0" y="-16.0" width="7" height="32" rx="2" fill="#808080" stroke="#606060" stroke-width="1"/>
    <rect x="-12.0" y="-14.0" width="24" height="28" rx="2" fill="#c8b870" stroke="#808080" stroke-width="1"/>
    <rect x="-9.0" y="-10.0" width="18" height="12" rx="2" fill="#a8a060" stroke="#808040" stroke-width="1"/>
    <rect x="-9.0" y="3.0" width="18" height="10" rx="2" fill="#b0a858" stroke="#908838" stroke-width="1"/>
  </g>
  <g transform="translate(224,32) rotate(135)">
    <rect x="-19.0" y="-16.0" width="7" height="32" rx="2" fill="#808080" stroke="#606060" stroke-width="1"/>
    <rect x="12.0" y="-16.0" width="7" height="32" rx="2" fill="#808080" stroke="#606060" stroke-width="1"/>
    <rect x="-12.0" y="-14.0" width="24" height="28" rx="2" fill="#c8b870" stroke="#808080" stroke-width="1"/>
    <rect x="-9.0" y="-10.0" width="18" height="12" rx="2" fill="#a8a060" stroke="#808040" stroke-width="1"/>
    <rect x="-9.0" y="3.0" width="18" height="10" rx="2" fill="#b0a858" stroke="#908838" stroke-width="1"/>
  </g>
  <g transform="translate(288,32) rotate(180)">
    <rect x="-19.0" y="-16.0" width="7" height="32" rx="2" fill="#808080" stroke="#606060" stroke-width="1"/>
    <rect x="12.0" y="-16.0" width="7" height="32" rx="2" fill="#808080" stroke="#606060" stroke-width="1"/>
    <rect x="-12.0" y="-14.0" width="24" height="28" rx="2" fill="#c8b870" stroke="#808080" stroke-width="1"/>
    <rect x="-9.0" y="-10.0" width="18" height="12" rx="2" fill="#a8a060" stroke="#808040" stroke-width="1"/>
    <rect x="-9.0" y="3.0" width="18" height="10" rx="2" fill="#b0a858" stroke="#908838" stroke-width="1"/>
  </g>
  <g transform="translate(352,32) rotate(225)">
    <rect x="-19.0" y="-16.0" width="7" height="32" rx="2" fill="#808080" stroke="#606060" stroke-width="1"/>
    <rect x="12.0" y="-16.0" width="7" height="32" rx="2" fill="#808080" stroke="#606060" stroke-width="1"/>
    <rect x="-12.0" y="-14.0" width="24" height="28" rx="2" fill="#c8b870" stroke="#808080" stroke-width="1"/>
    <rect x="-9.0" y="-10.0" width="18" height="12" rx="2" fill="#a8a060" stroke="#808040" stroke-width="1"/>
    <rect x="-9.0" y="3.0" width="18" height="10" rx="2" fill="#b0a858" stroke="#908838" stroke-width="1"/>
  </g>
  <g transform="translate(416,32) rotate(270)">
    <rect x="-19.0" y="-16.0" width="7" height="32" rx="2" fill="#808080" stroke="#606060" stroke-width="1"/>
    <rect x="12.0" y="-16.0" width="7" height="32" rx="2" fill="#808080" stroke="#606060" stroke-width="1"/>
    <rect x="-12.0" y="-14.0" width="24" height="28" rx="2" fill="#c8b870" stroke="#808080" stroke-width="1"/>
    <rect x="-9.0" y="-10.0" width="18" height="12" rx="2" fill="#a8a060" stroke="#808040" stroke-width="1"/>
    <rect x="-9.0" y="3.0" width="18" height="10" rx="2" fill="#b0a858" stroke="#908838" stroke-width="1"/>
  </g>
  <g transform="translate(480,32) rotate(315)">
    <rect x="-19.0" y="-16.0" width="7" height="32" rx="2" fill="#808080" stroke="#606060" stroke-width="1"/>
    <rect x="12.0" y="-16.0" width="7" height="32" rx="2" fill="#808080" stroke="#606060" stroke-width="1"/>
    <rect x="-12.0" y="-14.0" width="24" height="28" rx="2" fill="#c8b870" stroke="#808080" stroke-width="1"/>
    <rect x="-9.0" y="-10.0" width="18" height="12" rx="2" fill="#a8a060" stroke="#808040" stroke-width="1"/>
    <rect x="-9.0" y="3.0" width="18" height="10" rx="2" fill="#b0a858" stroke="#908838" stroke-width="1"/>
  </g>
</svg>
