<svg xmlns="http://www.w3.org/2000/svg" viewBox="0 0 512 64" width="512" height="64">
  <g transform="translate(32,32) rotate(0)">
    <rect x="-10.0" y="-11.0" width="20" height="22" rx="3" fill="#c8c8c8" stroke="#808080" stroke-width="1"/>
    <circle cx="-7.0" cy="-7.0" r="3" fill="#505050" stroke="#404040" stroke-width="1"/>
    <circle cx="7.0" cy="-7.0" r="3" fill="#505050" stroke="#404040" stroke-width="1"/>
    <circle cx="-7.0" cy="7.0" r="3" fill="#505050" stroke="#404040" stroke-width="1"/>
    <circle cx="7.0" cy="7.0" r="3" fill="#505050" stroke="#404040" stroke-width="1"/>
    <rect x="-7.0" y="-9.0" width="14" height="14" rx="2" fill="#b8b8b8" stroke="#808080" stroke-width="1"/>
    <rect x="-1.0" y="-15.0" width="2" height="10" rx="1" fill="#707070" stroke="#505050" stroke-width="1"/>
  </g>
  <g transform="translate(96,32) rotate(45)">
    <rect x="-10.0" y="-11.0" width="20" height="22" rx="3" fill="#c8c8c8" stroke="#808080" stroke-width="1"/>
    <circle cx="-7.0" cy="-7.0" r="3" fill="#505050" stroke="#404040" stroke-width="1"/>
    <circle cx="7.0" cy="-7.0" r="3" fill="#505050" stroke="#404040" stroke-width="1"/>
    <circle cx="-7.0" cy="7.0" r="3" fill="#505050" stroke="#404040" stroke-width="1"/>
    <circle cx="7.0" cy="7.0" r="3" fill="#505050" stroke="#404040" stroke-width="1"/>
    <rect x="-7.0" y="-9.0" width="14" height="14" rx="2" fill="#b8b8b8" stroke="#808080" stroke-width="1"/>
    <rect x="-1.0" y="-15.0" width="2" height="10" rx="1" fill="#707070" stroke="#505050" stroke-width="1"/>
  </g>
  <g transform="translate(160,32) rotate(90)">
    <rect x="-10.0" y="-11.0" width="20" height="22" rx="3" fill="#c8c8c8" stroke="#808080" stroke-width="1"/>
    <circle cx="-7.0" cy="-7.0" r="3" fill="#505050" stroke="#404040" stroke-width="1"/>
    <circle cx="7.0" cy="-7.0" r="3" fill="#505050" stroke="#404040" stroke-width="1"/>
    <circle cx="-7.0" cy="7.0" r="3" fill="#505050" stroke="#404040" stroke-width="1"/>
    <circle cx="7.0" cy="7.0" r="3" fill="#505050" stroke="#404040" stroke-width="1"/>
    <rect x="-7.0" y="-9.0" width="14" height="14" rx="2" fill="#b8b8b8" stroke="#808080" stroke-width="1"/>
    <rect x="-1.0" y="-15.0" width="2" height="10" rx="1" fill="#707070" stroke="#505050" stroke-width="1"/>
  </g>
  <g transform="translate(224,32) rotate(135)">
    <rect x="-10.0" y="-11.0" width="20" height="22" rx="3" fill="#c8c8c8" stroke="#808080" stroke-width="1"/>
    <circle cx="-7.0" cy="-7.0" r="3" fill="#505050" stroke="#404040" stroke-width="1"/>
    <circle cx="7.0" cy="-7.0" r="3" fill="#505050" stroke="#404040" stroke-width="1"/>
    <circle cx="-7.0" cy="7.0" r="3" fill="#505050" stroke="#404040" stroke-width="1"/>
    <circle cx="7.0" cy="7.0" r="3" fill="#505050" stroke="#404040" stroke-width="1"/>
    <rect x="-7.0" y="-9.0" width="14" height="14" rx="2" fill="#b8b8b8" stroke="#808080" stroke-width="1"/>
    <rect x="-1.0" y="-15.0" width="2" height="10" rx="1" fill="#707070" stroke="#505050" stroke-width="1"/>
  </g>
  <g transform="translate(288,32) rotate(180)">
    <rect x="-10.0" y="-11.0" width="20" height="22" rx="3" fill="#c8c8c8" stroke="#808080" stroke-width="1"/>
    <circle cx="-7.0" cy="-7.0" r="3" fill="#505050" stroke="#404040" stroke-width="1"/>
    <circle cx="7.0" cy="-7.0" r="3" fill="#505050" stroke="#404040" stroke-width="1"/>
    <circle cx="-7.0" cy="7.0" r="3" fill="#505050" stroke="#404040" stroke-width="1"/>
    <circle cx="7.0" cy="7.0" r="3" fill="#505050" stroke="#404040" stroke-width="1"/>
    <rect x="-7.0" y="-9.0" width="14" height="14" rx="2" fill="#b8b8b8" stroke="#808080" stroke-width="1"/>
    <rect x="-1.0" y="-15.0" width="2" height="10" rx="1" fill="#707070" stroke="#505050" stroke-width="1"/>
  </g>
  <g transform="translate(352,32) rotate(225)">
    <rect x="-10.0" y="-11.0" width="20" height="22" rx="3" fill="#c8c8c8" stroke="#808080" stroke-width="1"/>
    <circle cx="-7.0" cy="-7.0" r="3" fill="#505050" stroke="#404040" stroke-width="1"/>
    <circle cx="7.0" cy="-7.0" r="3" fill="#505050" stroke="#404040" stroke-width="1"/>
    <circle cx="-7.0" cy="7.0" r="3" fill="#505050" stroke="#404040" stroke-width="1"/>
    <circle cx="7.0" cy="7.0" r="3" fill="#505050" stroke="#404040" stroke-width="1"/>
    <rect x="-7.0" y="-9.0" width="14" height="14" rx="2" fill="#b8b8b8" stroke="#808080" stroke-width="1"/>
    <rect x="-1.0" y="-15.0" width="2" height="10" rx="1" fill="#707070" stroke="#505050" stroke-width="1"/>
  </g>
  <g transform="translate(416,32) rotate(270)">
    <rect x="-10.0" y="-11.0" width="20" height="22" rx="3" fill="#c8c8c8" stroke="#808080" stroke-width="1"/>
    <circle cx="-7.0" cy="-7.0" r="3" fill="#505050" stroke="#404040" stroke-width="1"/>
    <circle cx="7.0" cy="-7.0" r="3" fill="#505050" stroke="#404040" stroke-width="1"/>
    <circle cx="-7.0" cy="7.0" r="3" fill="#505050" stroke="#404040" stroke-width="1"/>
    <circle cx="7.0" cy="7.0" r="3" fill="#505050" stroke="#404040" stroke-width="1"/>
    <rect x="-7.0" y="-9.0" width="14" height="14" rx="2" fill="#b8b8b8" stroke="#808080" stroke-width="1"/>
    <rect x="-1.0" y="-15.0" width="2" height="10" rx="1" fill="#707070" stroke="#505050" stroke-width="1"/>
  </g>
  <g transform="translate(480,32) rotate(315)">
    <rect x="-10.0" y="-11.0" width="20" height="22" rx="3" fill="#c8c8c8" stroke="#808080" stroke-width="1"/>
    <circle cx="-7.0" cy="-7.0" r="3" fill="#505050" stroke="#404040" stroke-width="1"/>
    <circle cx="7.0" cy="-7.0" r="3" fill="#505050" stroke="#404040" stroke-width="1"/>
    <circle cx="-7.0" cy="7.0" r="3" fill="#505050" stroke="#404040" stroke-width="1"/>
    <circle cx="7.0" cy="7.0" r="3" fill="#505050" stroke="#404040" stroke-width="1"/>
    <rect x="-7.0" y="-9.0" width="14" height="14" rx="2" fill="#b8b8b8" stroke="#808080" stroke-width="1"/>
    <rect x="-1.0" y="-15.0" width="2" height="10" rx="1" fill="#707070" stroke="#505050" stroke-width="1"/>
  </g>
</svg>
