<svg xmlns="http://www.w3.org/2000/svg" viewBox="0 0 512 64" width="512" height="64">
  <g transform="translate(32,32) rotate(0)">
    <rect x="-20.0" y="-13.0" width="7" height="26" rx="2" fill="#808080" stroke="#606060" stroke-width="1"/>
    <rect x="13.0" y="-13.0" width="7" height="26" rx="2" fill="#808080" stroke="#606060" stroke-width="1"/>
    <rect x="-13.0" y="-11.0" width="26" height="22" rx="2" fill="#c8c8c8" stroke="#808080" stroke-width="1"/>
    <circle cx="0" cy="2" r="8" fill="#5555bb" stroke="#444488" stroke-width="1"/>
    <circle cx="0" cy="2" r="4" fill="#7777dd" stroke="#5555aa" stroke-width="1"/>
    <line x1="0" y1="-6" x2="0" y2="-14" stroke="#88aaff" stroke-width="2"/>
    <line x1="-3" y1="-4" x2="3" y2="-8" stroke="#88aaff" stroke-width="1.5"/>
    <line x1="3" y1="-4" x2="-3" y2="-8" stroke="#88aaff" stroke-width="1.5"/>
  </g>
  <g transform="translate(96,32) rotate(45)">
    <rect x="-20.0" y="-13.0" width="7" height="26" rx="2" fill="#808080" stroke="#606060" stroke-width="1"/>
    <rect x="13.0" y="-13.0" width="7" height="26" rx="2" fill="#808080" stroke="#606060" stroke-width="1"/>
    <rect x="-13.0" y="-11.0" width="26" height="22" rx="2" fill="#c8c8c8" stroke="#808080" stroke-width="1"/>
    <circle cx="0" cy="2" r="8" fill="#5555bb" stroke="#444488" stroke-width="1"/>
    <circle cx="0" cy="2" r="4" fill="#7777dd" stroke="#5555aa" stroke-width="1"/>
    <line x1="0" y1="-6" x2="0" y2="-14" stroke="#88aaff" stroke-width="2"/>
    <line x1="-3" y1="-4" x2="3" y2="-8" stroke="#88aaff" stroke-width="1.5"/>
    <line x1="3" y1="-4" x2="-3" y2="-8" stroke="#88aaff" stroke-width="1.5"/>
  </g>
  <g transform="translate(160,32) rotate(90)">
    <rect x="-20.0" y="-13.0" width="7" height="26" rx="2" fill="#808080" stroke="#606060" stroke-width="1"/>
    <rect x="13.0" y="-13.0" width="7" height="26" rx="2" fill="#808080" stroke="#606060" stroke-width="1"/>
    <rect x="-13.0" y="-11.0" width="26" height="22" rx="2" fill="#c8c8c8" stroke="#808080" stroke-width="1"/>
    <circle cx="0" cy="2" r="8" fill="#5555bb" stroke="#444488" stroke-width="1"/>
    <circle cx="0" cy="2" r="4" fill="#7777dd" stroke="#5555aa" stroke-width="1"/>
    <line x1="0" y1="-6" x2="0" y2="-14" stroke="#88aaff" stroke-width="2"/>
    <line x1="-3" y1="-4" x2="3" y2="-8" stroke="#88aaff" stroke-width="1.5"/>
    <line x1="3" y1="-4" x2="-3" y2="-8" stroke="#88aaff" stroke-width="1.5"/>
  </g>
  <g transform="translate(224,32) rotate(135)">
    <rect x="-20.0" y="-13.0" width="7" height="26" rx="2" fill="#808080" stroke="#606060" stroke-width="1"/>
    <rect x="13.0" y="-13.0" width="7" height="26" rx="2" fill="#808080" stroke="#606060" stroke-width="1"/>
    <rect x="-13.0" y="-11.0" width="26" height="22" rx="2" fill="#c8c8c8" stroke="#808080" stroke-width="1"/>
    <circle cx="0" cy="2" r="8" fill="#5555bb" stroke="#444488" stroke-width="1"/>
    <circle cx="0" cy="2" r="4" fill="#7777dd" stroke="#5555aa" stroke-width="1"/>
    <line x1="0" y1="-6" x2="0" y2="-14" stroke="#88aaff" stroke-width="2"/>
    <line x1="-3" y1="-4" x2="3" y2="-8" stroke="#88aaff" stroke-width="1.5"/>
    <line x1="3" y1="-4" x2="-3" y2="-8" stroke="#88aaff" stroke-width="1.5"/>
  </g>
  <g transform="translate(288,32) rotate(180)">
    <rect x="-20.0" y="-13.0" width="7" height="26" rx="2" fill="#808080" stroke="#606060" stroke-width="1"/>
    <rect x="13.0" y="-13.0" width="7" height="26" rx="2" fill="#808080" stroke="#606060" stroke-width="1"/>
    <rect x="-13.0" y="-11.0" width="26" height="22" rx="2" fill="#c8c8c8" stroke="#808080" stroke-width="1"/>
    <circle cx="0" cy="2" r="8" fill="#5555bb" stroke="#444488" stroke-width="1"/>
    <circle cx="0" cy="2" r="4" fill="#7777dd" stroke="#5555aa" stroke-width="1"/>
    <line x1="0" y1="-6" x2="0" y2="-14" stroke="#88aaff" stroke-width="2"/>
    <line x1="-3" y1="-4" x2="3" y2="-8" stroke="#88aaff" stroke-width="1.5"/>
    <line x1="3" y1="-4" x2="-3" y2="-8" stroke="#88aaff" stroke-width="1.5"/>
  </g>
  <g transform="translate(352,32) rotate(225)">
    <rect x="-20.0" y="-13.0" width="7" height="26" rx="2" fill="#808080" stroke="#606060" stroke-width="1"/>
    <rect x="13.0" y="-13.0" width="7" height="26" rx="2" fill="#808080" stroke="#606060" stroke-width="1"/>
    <rect x="-13.0" y="-11.0" width="26" height="22" rx="2" fill="#c8c8c8" stroke="#808080" stroke-width="1"/>
    <circle cx="0" cy="2" r="8" fill="#5555bb" stroke="#444488" stroke-width="1"/>
    <circle cx="0" cy="2" r="4" fill="#7777dd" stroke="#5555aa" stroke-width="1"/>
    <line x1="0" y1="-6" x2="0" y2="-14" stroke="#88aaff" stroke-width="2"/>
    <line x1="-3" y1="-4" x2="3" y2="-8" stroke="#88aaff" stroke-width="1.5"/>
    <line x1="3" y1="-4" x2="-3" y2="-8" stroke="#88aaff" stroke-width="1.5"/>
  </g>
  <g transform="translate(416,32) rotate(270)">
    <rect x="-20.0" y="-13.0" width="7" height="26" rx="2" fill="#808080" stroke="#606060" stroke-width="1"/>
    <rect x="13.0" y="-13.0" width="7" height="26" rx="2" fill="#808080" stroke="#606060" stroke-width="1"/>
    <rect x="-13.0" y="-11.0" width="26" height="22" rx="2" fill="#c8c8c8" stroke="#808080" stroke-width="1"/>
    <circle cx="0" cy="2" r="8" fill="#5555bb" stroke="#444488" stroke-width="1"/>
    <circle cx="0" cy="2" r="4" fill="#7777dd" stroke="#5555aa" stroke-width="1"/>
    <line x1="0" y1="-6" x2="0" y2="-14" stroke="#88aaff" stroke-width="2"/>
    <line x1="-3" y1="-4" x2="3" y2="-8" stroke="#88aaff" stroke-width="1.5"/>
    <line x1="3" y1="-4" x2="-3" y2="-8" stroke="#88aaff" stroke-width="1.5"/>
  </g>
  <g transform="translate(480,32) rotate(315)">
    <rect x="-20.0" y="-13.0" width="7" height="26" rx="2" fill="#808080" stroke="#606060" stroke-width="1"/>
    <rect x="13.0" y="-13.0" width="7" height="26" rx="2" fill="#808080" stroke="#606060" stroke-width="1"/>
    <rect x="-13.0" y="-11.0" width="26" height="22" rx="2" fill="#c8c8c8" stroke="#808080" stroke-width="1"/>
    <circle cx="0" cy="2" r="8" fill="#5555bb" stroke="#444488" stroke-width="1"/>
    <circle cx="0" cy="2" r="4" fill="#7777dd" stroke="#5555aa" stroke-width="1"/>
    <line x1="0" y1="-6" x2="0" y2="-14" stroke="#88aaff" stroke-width="2"/>
    <line x1="-3" y1="-4" x2="3" y2="-8" stroke="#88aaff" stroke-width="1.5"/>
    <line x1="3" y1="-4" x2="-3" y2="-8" stroke="#88aaff" stroke-width="1.5"/>
  </g>
</svg>
