<svg xmlns="http://www.w3.org/2000/svg" viewBox="0 0 512 64" width="512" height="64">
  <g transform="translate(32,32) rotate(0)">
    <rect x="-19.0" y="-14.0" width="7" height="28" rx="2" fill="#808080" stroke="#606060" stroke-width="1"/>
    <rect x="12.0" y="-14.0" width="7" height="28" rx="2" fill="#808080" stroke="#606060" stroke-width="1"/>
    <rect x="-12.0" y="-12.0" width="24" height="24" rx="2" fill="#c8c8c8" stroke="#808080" stroke-width="1"/>
    <rect x="-9.0" y="-11.0" width="18" height="18" rx="2" fill="#b0b0b0" stroke="#808080" stroke-width="1"/>
    <rect x="-2.0" y="-23.0" width="4" height="18" rx="1" fill="#aa4444" stroke="#883333" stroke-width="1"/>
    <polygon points="0,-24 -2,-20 2,-20" fill="#cc5555" stroke="#aa4444" stroke-width="1"/>
  </g>
  <g transform="translate(96,32) rotate(45)">
    <rect x="-19.0" y="-14.0" width="7" height="28" rx="2" fill="#808080" stroke="#606060" stroke-width="1"/>
    <rect x="12.0" y="-14.0" width="7" height="28" rx="2" fill="#808080" stroke="#606060" stroke-width="1"/>
    <rect x="-12.0" y="-12.0" width="24" height="24" rx="2" fill="#c8c8c8" stroke="#808080" stroke-width="1"/>
    <rect x="-9.0" y="-11.0" width="18" height="18" rx="2" fill="#b0b0b0" stroke="#808080" stroke-width="1"/>
    <rect x="-2.0" y="-23.0" width="4" height="18" rx="1" fill="#aa4444" stroke="#883333" stroke-width="1"/>
    <polygon points="0,-24 -2,-20 2,-20" fill="#cc5555" stroke="#aa4444" stroke-width="1"/>
  </g>
  <g transform="translate(160,32) rotate(90)">
    <rect x="-19.0" y="-14.0" width="7" height="28" rx="2" fill="#808080" stroke="#606060" stroke-width="1"/>
    <rect x="12.0" y="-14.0" width="7" height="28" rx="2" fill="#808080" stroke="#606060" stroke-width="1"/>
    <rect x="-12.0" y="-12.0" width="24" height="24" rx="2" fill="#c8c8c8" stroke="#808080" stroke-width="1"/>
    <rect x="-9.0" y="-11.0" width="18" height="18" rx="2" fill="#b0b0b0" stroke="#808080" stroke-width="1"/>
    <rect x="-2.0" y="-23.0" width="4" height="18" rx="1" fill="#aa4444" stroke="#883333" stroke-width="1"/>
    <polygon points="0,-24 -2,-20 2,-20" fill="#cc5555" stroke="#aa4444" stroke-width="1"/>
  </g>
  <g transform="translate(224,32) rotate(135)">
    <rect x="-19.0" y="-14.0" width="7" height="28" rx="2" fill="#808080" stroke="#606060" stroke-width="1"/>
    <rect x="12.0" y="-14.0" width="7" height="28" rx="2" fill="#808080" stroke="#606060" stroke-width="1"/>
    <rect x="-12.0" y="-12.0" width="24" height="24" rx="2" fill="#c8c8c8" stroke="#808080" stroke-width="1"/>
    <rect x="-9.0" y="-11.0" width="18" height="18" rx="2" fill="#b0b0b0" stroke="#808080" stroke-width="1"/>
    <rect x="-2.0" y="-23.0" width="4" height="18" rx="1" fill="#aa4444" stroke="#883333" stroke-width="1"/>
    <polygon points="0,-24 -2,-20 2,-20" fill="#cc5555" stroke="#aa4444" stroke-width="1"/>
  </g>
  <g transform="translate(288,32) rotate(180)">
    <rect x="-19.0" y="-14.0" width="7" height="28" rx="2" fill="#808080" stroke="#606060" stroke-width="1"/>
    <rect x="12.0" y="-14.0" width="7" height="28" rx="2" fill="#808080" stroke="#606060" stroke-width="1"/>
    <rect x="-12.0" y="-12.0" width="24" height="24" rx="2" fill="#c8c8c8" stroke="#808080" stroke-width="1"/>
    <rect x="-9.0" y="-11.0" width="18" height="18" rx="2" fill="#b0b0b0" stroke="#808080" stroke-width="1"/>
    <rect x="-2.0" y="-23.0" width="4" height="18" rx="1" fill="#aa4444" stroke="#883333" stroke-width="1"/>
    <polygon points="0,-24 -2,-20 2,-20" fill="#cc5555" stroke="#aa4444" stroke-width="1"/>
  </g>
  <g transform="translate(352,32) rotate(225)">
    <rect x="-19.0" y="-14.0" width="7" height="28" rx="2" fill="#808080" stroke="#606060" stroke-width="1"/>
    <rect x="12.0" y="-14.0" width="7" height="28" rx="2" fill="#808080" stroke="#606060" stroke-width="1"/>
    <rect x="-12.0" y="-12.0" width="24" height="24" rx="2" fill="#c8c8c8" stroke="#808080" stroke-width="1"/>
    <rect x="-9.0" y="-11.0" width="18" height="18" rx="2" fill="#b0b0b0" stroke="#808080" stroke-width="1"/>
    <rect x="-2.0" y="-23.0" width="4" height="18" rx="1" fill="#aa4444" stroke="#883333" stroke-width="1"/>
    <polygon points="0,-24 -2,-20 2,-20" fill="#cc5555" stroke="#aa4444" stroke-width="1"/>
  </g>
  <g transform="translate(416,32) rotate(270)">
    <rect x="-19.0" y="-14.0" width="7" height="28" rx="2" fill="#808080" stroke="#606060" stroke-width="1"/>
    <rect x="12.0" y="-14.0" width="7" height="28" rx="2" fill="#808080" stroke="#606060" stroke-width="1"/>
    <rect x="-12.0" y="-12.0" width="24" height="24" rx="2" fill="#c8c8c8" stroke="#808080" stroke-width="1"/>
    <rect x="-9.0" y="-11.0" width="18" height="18" rx="2" fill="#b0b0b0" stroke="#808080" stroke-width="1"/>
    <rect x="-2.0" y="-23.0" width="4" height="18" rx="1" fill="#aa4444" stroke="#883333" stroke-width="1"/>
    <polygon points="0,-24 -2,-20 2,-20" fill="#cc5555" stroke="#aa4444" stroke-width="1"/>
  </g>
  <g transform="translate(480,32) rotate(315)">
    <rect x="-19.0" y="-14.0" width="7" height="28" rx="2" fill="#808080" stroke="#606060" stroke-width="1"/>
    <rect x="12.0" y="-14.0" width="7" height="28" rx="2" fill="#808080" stroke="#606060" stroke-width="1"/>
    <rect x="-12.0" y="-12.0" width="24" height="24" rx="2" fill="#c8c8c8" stroke="#808080" stroke-width="1"/>
    <rect x="-9.0" y="-11.0" width="18" height="18" rx="2" fill="#b0b0b0" stroke="#808080" stroke-width="1"/>
    <rect x="-2.0" y="-23.0" width="4" height="18" rx="1" fill="#aa4444" stroke="#883333" stroke-width="1"/>
    <polygon points="0,-24 -2,-20 2,-20" fill="#cc5555" stroke="#aa4444" stroke-width="1"/>
  </g>
</svg>
