<?xml version="1.0" encoding="UTF-8"?>
<svg xmlns="http://www.w3.org/2000/svg" viewBox="0 0 64 80" width="64" height="80">
  <g transform="translate(64 0) scale(-1 1)">
  <!--
    Mega Man X - falling pose. Default orientation: facing right (+X).
    Artwork is authored facing left and mirrored by the wrapping <g>.
    Legs stretched down and slightly apart,
    arms out for balance, buster trailing slightly behind.
    Same palette as MegamanX_Idle.svg.
  -->

  <!-- ================= LEGS (stretched, parted) ================= -->
  <!-- Character's left thigh (viewer's right) - angled outward -->
  <path d="M 34 52 L 41 52 L 45 64 L 37 64 Z" fill="#4FC3F7" stroke="#0A2472" stroke-width="0.8"/>
  <!-- Boot angled out -->
  <rect x="36" y="64" width="11" height="13" rx="2" fill="#29B6F6" stroke="#0A2472" stroke-width="0.8"/>
  <rect x="36" y="64" width="11" height="3" fill="#FFFFFF" stroke="#0A2472" stroke-width="0.8"/>
  <rect x="36" y="74" width="11" height="3" fill="#0D47A1"/>

  <!-- Character's right thigh (viewer's left) - angled outward -->
  <path d="M 23 52 L 30 52 L 27 64 L 19 64 Z" fill="#4FC3F7" stroke="#0A2472" stroke-width="0.8"/>
  <!-- Boot angled out -->
  <rect x="17" y="64" width="11" height="13" rx="2" fill="#29B6F6" stroke="#0A2472" stroke-width="0.8"/>
  <rect x="17" y="64" width="11" height="3" fill="#FFFFFF" stroke="#0A2472" stroke-width="0.8"/>
  <rect x="17" y="74" width="11" height="3" fill="#0D47A1"/>

  <!-- Knee highlights -->
  <circle cx="40" cy="58" r="1.4" fill="#B3E5FC"/>
  <circle cx="24" cy="58" r="1.4" fill="#B3E5FC"/>

  <!-- ================= PELVIS / BELT ================= -->
  <rect x="20" y="48" width="24" height="5" fill="#0D47A1" stroke="#0A2472" stroke-width="0.8"/>

  <!-- ================= TORSO ================= -->
  <path d="M 20 32 Q 20 30 22 30 L 42 30 Q 44 30 44 32 L 44 48 L 20 48 Z"
        fill="#4FC3F7" stroke="#0A2472" stroke-width="0.8"/>
  <path d="M 26 33 L 38 33 L 36 44 L 28 44 Z" fill="#B3E5FC" stroke="#0A2472" stroke-width="0.5"/>
  <path d="M 30 35 L 34 35 L 32 42 Z" fill="#0D47A1"/>

  <!-- ================= ARMS (out for balance) ================= -->
  <!-- Buster arm angled back-down, outstretched -->
  <g transform="rotate(30 19 34)">
    <rect x="15" y="35" width="6" height="8" rx="1.2" fill="#4FC3F7" stroke="#0A2472" stroke-width="0.8"/>
    <path d="M 12 42 L 24 42 L 25 52 L 11 52 Z" fill="#29B6F6" stroke="#0A2472" stroke-width="0.8"/>
    <rect x="13" y="44" width="11" height="1.4" fill="#B3E5FC"/>
    <ellipse cx="18" cy="52.5" rx="7" ry="2.2" fill="#0D47A1" stroke="#0A2472" stroke-width="0.8"/>
    <ellipse cx="18" cy="52.5" rx="4" ry="1.3" fill="#0A2472"/>
  </g>

  <!-- Fist arm outstretched slightly back for balance -->
  <g transform="rotate(-25 45 34)">
    <rect x="43" y="35" width="6" height="12" rx="1.2" fill="#4FC3F7" stroke="#0A2472" stroke-width="0.8"/>
    <rect x="42" y="46" width="8" height="6" rx="1.5" fill="#FFFFFF" stroke="#0A2472" stroke-width="0.8"/>
    <line x1="43.5" y1="48.5" x2="48.5" y2="48.5" stroke="#0A2472" stroke-width="0.6"/>
  </g>

  <!-- ================= SHOULDER PADS ================= -->
  <path d="M 14 30 Q 14 26 19 26 Q 24 26 24 32 L 24 36 L 14 36 Z"
        fill="#29B6F6" stroke="#0A2472" stroke-width="0.8"/>
  <path d="M 40 32 Q 40 26 45 26 Q 50 26 50 30 L 50 36 L 40 36 Z"
        fill="#29B6F6" stroke="#0A2472" stroke-width="0.8"/>
  <path d="M 16 28 Q 18 27 21 28" fill="none" stroke="#B3E5FC" stroke-width="1" stroke-linecap="round"/>
  <path d="M 43 28 Q 46 27 48 28" fill="none" stroke="#B3E5FC" stroke-width="1" stroke-linecap="round"/>

  <!-- ================= NECK ================= -->
  <rect x="29" y="28" width="6" height="3" fill="#FFE0B2" stroke="#0A2472" stroke-width="0.5"/>

  <!-- ================= HEAD (looking slightly down) ================= -->
  <path d="M 24 14 L 40 14 L 40 24 Q 40 28 32 29 Q 24 28 24 24 Z"
        fill="#FFE0B2" stroke="#0A2472" stroke-width="0.8"/>
  <path d="M 22 4 Q 22 1.5 32 1.5 Q 42 1.5 42 4 L 44 14 L 44 18 L 20 18 L 20 14 Z"
        fill="#4FC3F7" stroke="#0A2472" stroke-width="0.8"/>
  <rect x="22" y="13" width="20" height="2.2" fill="#0D47A1" stroke="#0A2472" stroke-width="0.5"/>
  <path d="M 29.5 5 L 34.5 5 L 32 11 Z" fill="#E53935" stroke="#0A2472" stroke-width="0.5"/>
  <path d="M 30.5 6 L 32 6 L 31.5 8 Z" fill="#FFCDD2"/>
  <circle cx="19" cy="16" r="2.4" fill="#FDD835" stroke="#0A2472" stroke-width="0.7"/>
  <circle cx="45" cy="16" r="2.4" fill="#FDD835" stroke="#0A2472" stroke-width="0.7"/>
  <circle cx="19" cy="16" r="0.9" fill="#F57F17"/>
  <circle cx="45" cy="16" r="0.9" fill="#F57F17"/>
  <!-- Eyes looking down (taller, sit lower in socket) -->
  <rect x="26" y="20.5" width="3.2" height="3.2" rx="0.4" fill="#00E676" stroke="#0A2472" stroke-width="0.4"/>
  <rect x="34.8" y="20.5" width="3.2" height="3.2" rx="0.4" fill="#00E676" stroke="#0A2472" stroke-width="0.4"/>
  <rect x="26.4" y="22" width="0.9" height="1.2" fill="#FFFFFF"/>
  <rect x="35.2" y="22" width="0.9" height="1.2" fill="#FFFFFF"/>
  <path d="M 30 26 Q 32 26.5 34 26" fill="none" stroke="#0A2472" stroke-width="0.8" stroke-linecap="round"/>
  </g>
</svg>
