<svg xmlns="http://www.w3.org/2000/svg" viewBox="0 0 64 64" width="64" height="64">
  <rect width="64" height="64" fill="#d4b87a"/>
  <g fill="#c4a86a" opacity="0.4">
    <circle cx="8" cy="12" r="1"/>
    <circle cx="24" cy="6" r="0.8"/>
    <circle cx="44" cy="16" r="1"/>
    <circle cx="56" cy="8" r="0.7"/>
    <circle cx="12" cy="32" r="0.8"/>
    <circle cx="36" cy="28" r="1"/>
    <circle cx="52" cy="38" r="0.8"/>
    <circle cx="4" cy="52" r="1"/>
    <circle cx="20" cy="48" r="0.7"/>
    <circle cx="40" cy="54" r="1"/>
    <circle cx="60" cy="56" r="0.8"/>
    <circle cx="16" cy="20" r="0.6"/>
    <circle cx="48" cy="46" r="0.9"/>
    <circle cx="30" cy="42" r="0.7"/>
    <circle cx="58" cy="28" r="0.6"/>
  </g>
  <g fill="#dac892" opacity="0.3">
    <path d="M0 20 Q16 16 32 20 Q48 24 64 20 L64 26 Q48 30 32 26 Q16 22 0 26z"/>
    <path d="M0 46 Q16 42 32 46 Q48 50 64 46 L64 52 Q48 56 32 52 Q16 48 0 52z"/>
  </g>
</svg>
